<svg height="512" viewBox="0 0 128 128" width="512" xmlns="http://www.w3.org/2000/svg"><g><g><path d="m113.8 35.25-14.84 8.57-3.5 2.02-13.12 7.57-3.5 2.02-14.84 8.57-14.84-8.57-3.5-2.02-13.12-7.57-3.5-2.02-14.84-8.57 14.85-8.57 3.5-2.02 13.1-7.57 3.5-2.02 14.85-8.57 14.85 8.57 3.5 2.02 13.1 7.57 3.5 2.02z" fill="#6aa8fb"/><g><path d="m64 64v57.5l-14.85-8.57-3.5-2.02-13.1-7.57-3.5-2.02-14.85-8.57v-57.5l14.85 8.57 3.5 2.02 13.1 7.57 3.5 2.02z" fill="#f3d232"/><path d="m64 64v57.5l14.85-8.57 3.5-2.02 13.1-7.57 3.5-2.02 14.85-8.57v-57.5l-14.85 8.57-3.5 2.02-13.1 7.57-3.5 2.02z" fill="#dc4c12"/></g></g><g fill="#20334d"><path d="m113.8 43.167a1.75 1.75 0 0 0 1.75-1.75v-6.167a1.853 1.853 0 0 0 -.875-1.516l-16.6-9.579-16.6-9.59-16.6-9.58a1.753 1.753 0 0 0 -1.75 0l-16.6 9.58-16.6 9.59-16.6 9.579a1.753 1.753 0 0 0 -.875 1.516v22.344a1.75 1.75 0 0 0 3.5 0v-.146l13.1 7.562v15.125l-13.1-7.562v-1.865a1.75 1.75 0 0 0 -3.5 0v22.042a1.752 1.752 0 0 0 .875 1.516l16.6 9.583 16.6 9.583 16.6 9.584a1.753 1.753 0 0 0 1.75 0l16.6-9.584 6.871-3.966a1.75 1.75 0 0 0 -1.75-3.031l-4.246 2.451v-15.126l13.1-7.56v15.125l-2.35 1.353a1.75 1.75 0 1 0 1.75 3.031l3.223-1.86 16.6-9.583a1.752 1.752 0 0 0 .875-1.516v-43.937a1.75 1.75 0 0 0 -3.5 0v4.593l-8.093 4.672-5.005 2.891v-15.125l13.1-7.563v3.136a1.749 1.749 0 0 0 1.75 1.75zm-79.5 1.664 13.1-7.56 13.1 7.56-13.1 7.569-7.749-4.473zm29.7 17.148-13.1-7.561 13.1-7.567 13.1 7.567zm-14.85 10.594v-15.123l13.1 7.56v15.125zm16.6 7.562v-15.125l13.1-7.56v15.123zm-1.75-37.325-13.1-7.56 13.1-7.56 13.1 7.56zm-18.35 12.62v15.122l-13.1-7.562v-15.126l5.587 3.226zm34.95-3.03-13.1-7.569 13.1-7.56 13.1 7.56-5.354 3.093zm-31.45 39.34v-15.125l13.1 7.562v15.123zm16.6-7.563 13.1-7.562v15.125l-13.1 7.56zm16.6-9.583 13.1-7.563v15.125l-13.1 7.563zm13.1-11.6-13.1 7.562v-15.126l7.513-4.34 5.587-3.226zm-49.8 11.6v15.125l-13.1-7.563v-15.125zm66.4-17.146v15.125l-13.1 7.562v-15.125l8.093-4.672zm-14.85-14.638-13.1-7.56 13.1-7.56 13.1 7.56zm-16.6-9.581-13.1-7.56 13.1-7.569 13.1 7.568zm-16.6-24.708 13.1 7.56-13.1 7.568-13.1-7.568zm-16.6 9.579 13.1 7.568-13.1 7.56-13.1-7.56zm-16.6 9.59 13.1 7.56-13.1 7.56-13.1-7.56zm-14.85 10.591 13.1 7.563v15.125l-13.1-7.563zm0 38.334 13.1 7.562v15.123l-13.1-7.56zm16.6 9.585 13.1 7.562v15.126l-13.1-7.563zm16.6 9.583 13.1 7.563v15.125l-13.1-7.563zm16.6 7.563 13.1-7.563v15.125l-13.1 7.563zm33.2-4.046v-15.123l13.1-7.562v15.125z"/><path d="m14.2 66.969a1.75 1.75 0 0 0 1.75-1.75v-2.594a1.75 1.75 0 0 0 -3.5 0v2.594a1.751 1.751 0 0 0 1.75 1.75z"/></g></g></svg>